<svg width="470" height="462" viewBox="0 0 470 462" fill="none" xmlns="http://www.w3.org/2000/svg">
<g clip-path="url(#clip0_112_359)">
<path opacity="0.2" d="M238.27 462C365.768 462 469.125 358.578 469.125 231C469.125 103.422 365.768 0 238.27 0C110.773 0 7.41626 103.422 7.41626 231C7.41626 358.578 110.773 462 238.27 462Z" fill="#B1B1B1" fill-opacity="0.91"/>
<path d="M457.099 56.1202C467.528 64.3913 468.996 79.6711 460.395 89.7975L412.859 145.712L282.742 298.793L245.893 269.496L368.929 124.763L424.576 59.3153C432.79 49.6527 447.185 48.2355 457.125 56.1459L457.099 56.1202Z" fill="#FF7A2F"/>
<path d="M282.742 302.786C281.866 302.786 280.991 302.503 280.27 301.91L243.421 272.613C242.571 271.944 242.03 270.939 241.927 269.882C241.824 268.8 242.159 267.718 242.854 266.893L365.89 122.161L421.537 56.7129C431.194 45.3497 447.932 43.7006 459.623 53.0024C465.519 57.692 469.176 64.3914 469.897 71.8895C470.618 79.3877 468.352 86.6797 463.459 92.4L415.924 148.314L285.806 301.395C285.008 302.323 283.9 302.812 282.767 302.812L282.742 302.786ZM251.609 268.929L282.201 293.253L409.821 143.109L457.357 87.1951C460.807 83.1239 462.429 77.9448 461.914 72.6368C461.399 67.3288 458.799 62.5619 454.627 59.238C446.335 52.6417 434.464 53.8012 427.615 61.8662L371.968 127.314L251.609 268.903V268.929Z" fill="#1A1A1A" fill-opacity="0.94"/>
<path d="M323.479 354.166V400.211H146.521V354.166C146.521 354.166 29.3044 337.005 36.6433 221.904H433.331C440.67 337.005 323.453 354.166 323.453 354.166H323.479Z" fill="#F1D7C9"/>
<path d="M323.479 404.205H146.521C144.306 404.205 142.53 402.427 142.53 400.211V357.515C133.826 355.789 110.084 349.966 86.6509 334.557C59.8702 316.932 28.7635 283.049 32.6776 221.672C32.8063 219.559 34.5574 217.936 36.6689 217.936H433.331C435.443 217.936 437.194 219.585 437.323 221.672C441.237 283.049 410.13 316.932 383.349 334.557C359.916 349.991 336.148 355.789 327.47 357.515V400.211C327.47 402.427 325.694 404.205 323.479 404.205ZM150.538 396.217H319.488V354.166C319.488 352.182 320.93 350.507 322.913 350.223C323.196 350.172 351.882 345.791 379.229 327.729C414.482 304.436 431.4 270.191 429.597 225.924H40.4543C38.6517 270.217 55.5699 304.436 90.8224 327.729C118.144 345.791 146.83 350.197 147.139 350.223C149.096 350.507 150.564 352.207 150.564 354.166V396.217H150.538Z" fill="#1A1A1A" fill-opacity="0.94"/>
<path d="M320.466 352.517H149.534C136.379 352.517 125.715 363.188 125.715 376.351C125.715 389.514 136.379 400.185 149.534 400.185H320.466C333.621 400.185 344.286 389.514 344.286 376.351C344.286 363.188 333.621 352.517 320.466 352.517Z" fill="#FF7A2F"/>
<path d="M320.441 404.205H149.534C134.186 404.205 121.723 391.708 121.723 376.377C121.723 361.045 134.212 348.548 149.534 348.548H320.441C335.788 348.548 348.251 361.045 348.251 376.377C348.251 391.708 335.762 404.205 320.441 404.205V404.205ZM149.534 356.536C138.59 356.536 129.706 365.426 129.706 376.377C129.706 387.328 138.59 396.217 149.534 396.217H320.441C331.385 396.217 340.268 387.328 340.268 376.377C340.268 365.426 331.385 356.536 320.441 356.536H149.534V356.536Z" fill="#1A1A1A" fill-opacity="0.94"/>
<path d="M442.189 192.659H27.8108C14.6557 192.659 3.99146 203.33 3.99146 216.493C3.99146 229.657 14.6557 240.328 27.8108 240.328H442.189C455.344 240.328 466.009 229.657 466.009 216.493C466.009 203.33 455.344 192.659 442.189 192.659Z" fill="#F1D7C9"/>
<path d="M442.164 244.347H27.8106C12.4633 244.347 0 231.85 0 216.519C0 201.188 12.489 188.691 27.8106 188.691H442.164C457.511 188.691 469.974 201.188 469.974 216.519C469.974 231.85 457.485 244.347 442.164 244.347ZM27.8106 196.679C16.8666 196.679 7.98269 205.568 7.98269 216.519C7.98269 227.47 16.8666 236.36 27.8106 236.36H442.164C453.108 236.36 461.992 227.47 461.992 216.519C461.992 205.568 453.108 196.679 442.164 196.679H27.8106Z" fill="#1A1A1A" fill-opacity="0.94"/>
<path d="M122.238 150.994C120.255 150.994 118.273 150.092 116.985 148.391C95.6892 120.383 107.251 106.958 117.448 95.1313C122.315 89.4884 126.925 84.1546 128.727 76.8368C130.736 68.7976 127.955 61.9951 120.204 56.043C113.869 51.173 106.633 48.8798 106.556 48.8798C103.054 47.8233 101.097 44.1387 102.153 40.6344C103.208 37.1301 106.916 35.1718 110.393 36.2282C123.938 40.3509 147.86 54.7804 141.551 80.0577C138.976 90.416 132.847 97.5019 127.44 103.763C117.912 114.817 112.659 120.898 127.491 140.378C129.706 143.29 129.139 147.438 126.229 149.654C125.045 150.556 123.629 150.994 122.238 150.994V150.994Z" fill="#FF7A2F"/>
<path d="M122.238 154.988C118.891 154.988 115.826 153.467 113.792 150.788C90.5392 120.202 104.342 104.201 114.41 92.5031C119.148 86.9889 123.242 82.2478 124.839 75.8577C126.461 69.3644 124.272 64.2368 117.758 59.2122C112.067 54.8319 105.423 52.6932 105.346 52.6932C102.668 51.8687 100.453 50.0392 99.1141 47.5399C97.7751 45.0405 97.4919 42.1803 98.3159 39.4491C100.015 33.8576 105.938 30.6883 111.552 32.3889C115.028 33.4454 127.028 37.6454 136.324 47.4368C145.362 57.0221 148.53 68.6172 145.439 80.9853C142.633 92.2711 135.886 100.079 130.478 106.34C121.26 117.033 117.835 121.027 130.659 137.93C132.384 140.198 133.105 142.98 132.719 145.789C132.332 148.598 130.89 151.097 128.624 152.798C126.77 154.215 124.556 154.962 122.212 154.962L122.238 154.988ZM108.487 39.9386C107.354 39.9386 106.324 40.6601 105.99 41.7938C105.784 42.4638 105.861 43.1595 106.196 43.7779C106.53 44.3963 107.071 44.8343 107.741 45.0405C107.844 45.0662 115.723 47.5399 122.65 52.8736C131.663 59.8049 135.01 68.1791 132.616 77.7902C130.556 86.0098 125.431 91.9619 120.461 97.708C110.367 109.432 100.814 120.486 120.152 145.944C120.642 146.613 121.414 146.974 122.238 146.974C122.65 146.974 123.242 146.871 123.809 146.433C124.375 146.021 124.71 145.402 124.813 144.707C124.916 144.011 124.736 143.315 124.298 142.774C108.307 121.748 113.637 113.632 124.401 101.135C129.757 94.9251 135.294 88.4834 137.663 79.0527C143.251 56.7129 121.491 43.7521 109.234 40.0159C108.977 39.9386 108.719 39.9129 108.487 39.9129V39.9386Z" fill="#1A1A1A" fill-opacity="0.94"/>
<path d="M186.074 150.994C184.091 150.994 182.108 150.092 180.821 148.391C159.525 120.383 171.087 106.958 181.284 95.1313C186.151 89.4884 190.76 84.1546 192.563 76.8368C194.571 68.7976 191.79 61.9951 184.039 56.043C177.705 51.173 170.469 48.8798 170.392 48.8798C166.89 47.8233 164.933 44.1387 165.988 40.6344C167.044 37.1301 170.752 35.1718 174.229 36.2282C187.773 40.3509 211.696 54.7804 205.387 80.0577C202.812 90.416 196.683 97.5019 191.275 103.763C181.748 114.817 176.52 120.898 191.327 140.378C193.541 143.29 192.975 147.438 190.065 149.654C188.881 150.556 187.464 150.994 186.074 150.994Z" fill="#FF7A2F"/>
<path d="M186.074 154.988C182.726 154.988 179.636 153.467 177.628 150.788C154.375 120.202 168.177 104.201 178.246 92.503C182.984 86.9889 187.078 82.2478 188.675 75.8576C190.297 69.3644 188.108 64.2368 181.593 59.2122C175.902 54.8319 169.259 52.6932 169.181 52.6932C166.503 51.8687 164.289 50.0392 162.95 47.5399C161.611 45.0405 161.328 42.1803 162.152 39.4491C162.976 36.7435 164.804 34.5018 167.302 33.1619C169.8 31.8221 172.658 31.5386 175.362 32.3632C178.838 33.4196 190.838 37.6196 200.134 47.411C209.172 56.9963 212.339 68.5914 209.249 80.9595C206.443 92.2454 199.696 100.053 194.288 106.314C185.07 116.982 181.645 120.975 194.494 137.904C196.22 140.172 196.941 142.955 196.554 145.763C196.168 148.572 194.726 151.071 192.46 152.772C190.606 154.189 188.391 154.936 186.048 154.936L186.074 154.988ZM172.323 39.9386C171.911 39.9386 171.473 40.0417 171.087 40.2478C170.469 40.5828 170.031 41.1239 169.825 41.7938C169.619 42.4638 169.696 43.1595 170.031 43.7779C170.366 44.3963 170.907 44.8343 171.576 45.0405C171.679 45.0662 179.559 47.5399 186.486 52.8736C195.499 59.8049 198.846 68.1791 196.451 77.7902C194.391 86.0098 189.267 91.9619 184.323 97.7079C174.203 109.432 164.675 120.512 184.014 145.944C184.503 146.613 185.276 146.974 186.1 146.974C186.486 146.974 187.104 146.871 187.67 146.433C188.237 146.021 188.597 145.402 188.675 144.707C188.778 144.011 188.597 143.315 188.16 142.774C172.169 121.723 177.499 113.632 188.263 101.135C193.619 94.9251 199.155 88.5092 201.524 79.0527C207.112 56.7129 185.353 43.7521 173.096 40.0417C172.838 39.9644 172.581 39.9386 172.349 39.9386H172.323Z" fill="#1A1A1A" fill-opacity="0.94"/>
<path d="M249.91 150.994C247.927 150.994 245.944 150.092 244.656 148.391C223.361 120.383 234.923 106.958 245.12 95.1312C249.987 89.4882 254.596 84.1545 256.399 76.8367C261.24 57.46 235.309 49.2146 234.227 48.8796C230.751 47.7974 228.794 44.1128 229.85 40.6343C230.906 37.1557 234.588 35.1717 238.09 36.2539C251.635 40.3766 275.557 54.806 269.248 80.0833C266.673 90.4416 260.545 97.5275 255.137 103.789C245.609 114.843 240.382 120.924 255.188 140.404C257.403 143.315 256.836 147.464 253.927 149.68C252.742 150.581 251.326 151.02 249.935 151.02L249.91 150.994Z" fill="#FF7A2F"/>
<path d="M249.91 154.988C246.562 154.988 243.498 153.467 241.463 150.788C218.211 120.202 232.013 104.201 242.081 92.503C246.819 86.9889 250.914 82.2478 252.51 75.8576C256.45 60.1398 233.97 52.9766 233.017 52.6932C227.455 50.9668 224.288 45.0147 226.013 39.449C227.713 33.8576 233.661 30.714 239.223 32.4147C242.674 33.4711 254.699 37.6711 263.969 47.4625C273.008 57.0478 276.175 68.6429 273.085 81.011C270.278 92.2969 263.532 100.104 258.124 106.366C248.905 117.033 245.48 121.027 258.33 137.956C261.858 142.62 260.957 149.293 256.296 152.823C254.442 154.24 252.227 154.988 249.884 154.988H249.91ZM236.159 39.9386C235.051 39.9386 233.996 40.6601 233.661 41.7938C233.249 43.1594 234.021 44.6282 235.386 45.0662C246.794 48.5963 264.845 59.4699 260.261 77.8159C258.201 86.0355 253.077 91.9877 248.107 97.7337C238.013 109.458 228.459 120.512 247.798 145.969C248.287 146.639 249.06 147 249.884 147C250.27 147 250.888 146.897 251.455 146.459C252.613 145.583 252.819 143.934 251.944 142.8C235.953 121.774 241.283 113.658 252.047 101.161C257.403 94.9508 262.939 88.5349 265.308 79.0785C270.896 56.7386 249.137 43.7778 236.88 40.0417C236.622 39.9643 236.365 39.9386 236.133 39.9386H236.159Z" fill="#1A1A1A" fill-opacity="0.94"/>
</g>
<defs>
<clipPath id="clip0_112_359">
<rect width="470" height="462" fill="white"/>
</clipPath>
</defs>
</svg>
