<svg width="512" height="310" viewBox="0 0 512 310" fill="none" xmlns="http://www.w3.org/2000/svg">
<path d="M84.446 225.403H13.082C5.649 225.403 0 220.348 0 211.724C0 209.346 39.246 65.429 39.246 65.429C42.814 57.995 49.356 55.319 55.6 55.319C62.439 55.319 79.59 59.933 79.59 68.855C79.59 70.342 79.663 73.458 78.77 75.241L49.655 189.423H84.446V158.202C84.446 149.58 94.258 146.011 103.773 146.011C113.587 146.011 123.101 149.579 123.101 158.202V189.423H137.076C145.105 189.423 149.268 198.344 149.268 207.561C149.268 216.481 143.319 225.403 137.076 225.403H123.101V260.49C123.101 268.519 113.586 272.681 103.773 272.681C94.258 272.681 84.446 268.518 84.446 260.49V225.403Z" fill="#FF7A2F"/>
<path d="M390.515 107.571C396.961 83.825 401.977 65.429 401.977 65.429C405.545 57.995 412.087 55.319 418.331 55.319C425.17 55.319 442.321 59.933 442.321 68.855C442.321 70.342 442.394 73.458 441.501 75.241L412.387 189.423H447.178V158.202C447.178 149.58 456.99 146.011 466.505 146.011C476.319 146.011 485.833 149.579 485.833 158.202V189.423H499.808C507.837 189.423 512 198.344 512 207.561C512 216.481 506.051 225.403 499.808 225.403H485.833V260.49C485.833 268.519 476.318 272.681 466.505 272.681C456.99 272.681 447.178 268.518 447.178 260.49V225.403H375.813C368.38 225.403 362.731 220.348 362.731 211.724C362.731 210.533 372.571 173.855 382.397 137.527L390.515 107.571Z" fill="#FF7A2F"/>
<path d="M256.009 259.554C304.876 259.554 344.49 219.94 344.49 171.073C344.49 122.206 304.876 82.592 256.009 82.592C207.142 82.592 167.528 122.206 167.528 171.073C167.528 219.94 207.142 259.554 256.009 259.554Z" fill="#F1D7C9"/>
<path d="M267.088 171.076L297.865 140.299C300.925 137.239 300.925 132.276 297.865 129.217C294.803 126.157 289.842 126.157 286.782 129.217L256.005 159.994L225.228 129.217C222.166 126.157 217.205 126.157 214.145 129.217C211.085 132.277 211.085 137.24 214.145 140.299L244.922 171.076L214.145 201.853C211.085 204.913 211.085 209.876 214.145 212.935C215.676 214.465 217.682 215.231 219.687 215.231C221.692 215.231 223.698 214.466 225.229 212.935L256.006 182.158L286.783 212.935C288.314 214.465 290.32 215.231 292.325 215.231C294.33 215.231 296.336 214.466 297.867 212.935C300.927 209.875 300.927 204.912 297.867 201.853L267.088 171.076Z" fill="#272525"/>
</svg>
