<svg width="512" height="512" viewBox="0 0 512 512" fill="none" xmlns="http://www.w3.org/2000/svg">
<path d="M15 289.122H45.917C54.201 289.122 60.917 282.406 60.917 274.122C60.917 265.838 54.201 259.122 45.917 259.122H15C6.716 259.122 0 265.838 0 274.122C0 282.406 6.716 289.122 15 289.122Z" fill="#FF7A2F"/>
<path d="M210.529 199.122H15C6.716 199.122 0 205.838 0 214.122C0 222.406 6.716 229.122 15 229.122H210.529C218.813 229.122 225.529 222.406 225.529 214.122C225.529 205.838 218.813 199.122 210.529 199.122Z" fill="#FF7A2F"/>
<path d="M157.529 259.122H106.612C98.3278 259.122 91.6118 265.838 91.6118 274.122C91.6118 282.406 98.3278 289.122 106.612 289.122H157.529C165.813 289.122 172.529 282.406 172.529 274.122C172.529 265.838 165.813 259.122 157.529 259.122Z" fill="#FF7A2F"/>
<path d="M137.529 319.122H15C6.716 319.122 0 325.838 0 334.122C0 342.406 6.716 349.122 15 349.122H137.529C145.813 349.122 152.529 342.406 152.529 334.122C152.529 325.838 145.813 319.122 137.529 319.122Z" fill="#FF7A2F"/>
<path d="M497 379.068H479.63V339.687C479.63 245.123 402.696 168.188 308.132 168.188C213.567 168.188 136.633 245.123 136.633 339.687V379.068H119.263C110.979 379.068 104.263 385.784 104.263 394.068C104.263 402.352 110.979 409.068 119.263 409.068H497C505.284 409.068 512 402.352 512 394.068C512 385.784 505.284 379.068 497 379.068Z" fill="#F1D7C9"/>
<path d="M497 379.068H479.63V339.687C479.63 245.123 402.696 168.188 308.132 168.188C213.567 168.188 136.633 245.123 136.633 339.687V379.068H119.263C110.979 379.068 104.263 385.784 104.263 394.068C104.263 402.352 110.979 409.068 119.263 409.068H497C505.284 409.068 512 402.352 512 394.068C512 385.784 505.284 379.068 497 379.068Z" fill="#D8D8D8"/>
<path d="M470.13 379.068V388.568H479.63H497C500.037 388.568 502.5 391.031 502.5 394.068C502.5 397.105 500.037 399.568 497 399.568H317.632V177.963C402.546 182.899 470.13 253.558 470.13 339.687V379.068Z" fill="#F1D7C9" stroke="#FF7A2F" stroke-width="19"/>
<path d="M261.003 150.56C261.003 124.574 282.145 103.432 308.132 103.432C311.246 103.432 313.994 104.839 316.386 107.369C318.784 109.906 320.807 113.559 322.435 117.988C325.691 126.846 327.328 138.69 327.328 150.56C327.328 162.43 325.691 174.274 322.435 183.132C320.807 187.561 318.784 191.214 316.386 193.752C313.994 196.281 311.246 197.688 308.132 197.688C282.145 197.688 261.003 176.546 261.003 150.56Z" fill="#FF7A2F" stroke="black"/>
<path d="M355.26 150.56C355.26 176.379 334.388 197.416 308.632 197.685V103.435C334.388 103.704 355.26 124.741 355.26 150.56Z" fill="#FF7A2F" stroke="black"/>
</svg>
